<svg xmlns="http://www.w3.org/2000/svg" xmlns:xlink="http://www.w3.org/1999/xlink" width="36" height="26" viewBox="0 0 36 26"><defs><path id="a" d="M627 443a4 4 0 0 1 4-4h26a4 4 0 0 1 4 4v16a4 4 0 0 1-4 4h-26a4 4 0 0 1-4-4z"/><path id="e" d="M627.03 434.03h33.848v18.327l-1.676 2.626 1.676 2.336v10.66H627.03v-17.276l1.047-1.208-1.047-1.155z"/><path id="f" d="M633.6 457.69v-5.33h5.627l.603.79.624-.79h20.423v4.962s-.534.363-1.152.368h-11.308l-.681-.84v.84h-2.23v-1.434s-.305.2-.964.2h-.759v1.234h-3.377l-.603-.806-.612.806z"/><path id="g" d="M627.03 448.347l1.269-2.967h2.194l.72 1.662v-1.662h2.728l.429 1.201.415-1.201h12.245v.604s.644-.604 1.701-.604l3.973.014.708 1.64v-1.654h2.283l.628.942v-.942h2.304v5.33h-2.304l-.602-.945v.945h-3.354l-.337-.84h-.902l-.332.84h-2.274c-.91 0-1.492-.592-1.492-.592v.592h-3.43l-.68-.84v.84h-12.752l-.337-.84h-.899l-.334.84h-1.568z"/><path id="h" d="M629.385 446.959l.56 1.396h-1.122l.562-1.396zm-.634-.929l-1.711 3.991h1.114l.316-.8h1.836l.314.8h1.139l-1.71-3.991z"/><path id="i" d="M631.88 450.021v-3.991l1.583.006.921 2.573.9-2.579h1.57v3.991h-.995v-2.94l-1.054 2.94h-.873l-1.057-2.94v2.94z"/><path id="j" d="M637.53 450.021v-3.991h3.246v.893h-2.24v.682h2.188v.84h-2.189v.71h2.241v.866z"/><path id="k" d="M642.347 446.923h1.133c.272 0 .47.214.47.42 0 .265-.256.42-.455.42h-1.148v-.84zm-.997-.893v3.991h.995v-1.418h.419l1.192 1.418h1.216l-1.309-1.47a1.214 1.214 0 0 0 1.091-1.226c0-.84-.657-1.295-1.39-1.295h-2.214z"/><path id="l" d="M646.376 450.021h-1.016v-3.991h1.016z"/><path id="m" d="M648.784 450.021h-.22c-1.06 0-1.704-.838-1.704-1.98 0-1.168.637-2.011 1.976-2.011h1.1v.945h-1.14c-.544 0-.928.426-.928 1.077 0 .773.44 1.097 1.073 1.097h.262z"/><path id="n" d="M651.585 446.959l.56 1.396h-1.122zm-.634-.929l-1.711 3.991h1.114l.316-.8h1.836l.314.8h1.139l-1.71-3.991z"/><path id="o" d="M654.08 450.021v-3.991h1.265l1.615 2.507v-2.507h.994v3.991h-1.223l-1.656-2.573v2.573z"/><path id="p" d="M634.29 457.011v-3.991h3.246v.893h-2.24v.682h2.188v.84h-2.189v.71h2.241v.866z"/><path id="q" d="M650.19 457.011v-3.991h3.246v.893h-2.24v.682h2.177v.84h-2.178v.71h2.241v.866z"/><path id="r" d="M637.658 457.011l1.58-1.97-1.618-2.021h1.253l.964 1.249.967-1.249h1.204l-1.597 1.995 1.584 1.996h-1.253l-.936-1.23-.913 1.23z"/><path id="s" d="M643.13 453.923h1.104c.286 0 .49.176.49.459 0 .266-.203.46-.494.46h-1.1zm-1.02-.903v3.991h1.02v-1.26h1.048c.886 0 1.558-.472 1.558-1.389 0-.76-.527-1.342-1.429-1.342h-2.197z"/><path id="t" d="M647.165 453.913h1.137c.273 0 .471.214.471.42 0 .265-.257.42-.456.42h-1.152v-.84zm-.995-.893v3.991h.995v-1.418h.419l1.192 1.418h1.216l-1.309-1.47a1.214 1.214 0 0 0 1.091-1.226c0-.84-.657-1.295-1.39-1.295h-2.214z"/><path id="u" d="M653.896 457.011v-.866h1.991c.295 0 .422-.16.422-.335 0-.168-.127-.338-.422-.338h-.9c-.781 0-1.217-.478-1.217-1.195 0-.64.399-1.257 1.56-1.257h1.938l-.419.898h-1.675c-.32 0-.42.169-.42.33 0 .165.123.347.367.347h.943c.872 0 1.25.496 1.25 1.146 0 .698-.422 1.27-1.298 1.27z"/><path id="v" d="M657.546 457.011v-.866h1.991c.295 0 .422-.16.422-.335 0-.168-.127-.338-.422-.338h-.9c-.781 0-1.217-.478-1.217-1.195 0-.64.399-1.257 1.56-1.257h1.938l-.419.898h-1.675c-.32 0-.42.169-.42.33 0 .165.123.347.367.347h.943c.872 0 1.25.496 1.25 1.146 0 .698-.422 1.27-1.298 1.27z"/><mask id="c" width="2" height="2" x="-1" y="-1"><path fill="#fff" d="M627 439h34v24h-34z"/><use xlink:href="#a"/></mask><filter id="b" width="56" height="47" x="616" y="428" filterUnits="userSpaceOnUse"><feOffset dy="1" in="SourceGraphic" result="FeOffset1392Out"/><feGaussianBlur in="FeOffset1392Out" result="FeGaussianBlur1393Out" stdDeviation="0.4 0.4"/></filter><clipPath id="d"><use xlink:href="#a"/></clipPath></defs><g transform="translate(-626 -439)"><g filter="url(#b)"><use fill="none" stroke-opacity=".1" stroke-width="0" mask="url(&quot;#c&quot;)" xlink:href="#a"/><use fill-opacity=".1" xlink:href="#a"/></g><use fill="#006ecd" xlink:href="#a"/></g><g clip-path="url(#d)" transform="translate(-626 -439)"><use fill="#016fd0" xlink:href="#e"/><use fill="#fff" xlink:href="#f"/><use fill="#fff" xlink:href="#g"/><use fill="#016fd0" xlink:href="#h"/><use fill="#016fd0" xlink:href="#i"/><use fill="#016fd0" xlink:href="#j"/><use fill="#016fd0" xlink:href="#k"/><use fill="#016fd0" xlink:href="#l"/><use fill="#016fd0" xlink:href="#m"/><use fill="#016fd0" xlink:href="#n"/><use fill="#016fd0" xlink:href="#o"/><use fill="#016fd0" xlink:href="#p"/><use fill="#016fd0" xlink:href="#q"/><use fill="#016fd0" xlink:href="#r"/><use fill="#016fd0" xlink:href="#s"/><use fill="#016fd0" xlink:href="#t"/><use fill="#016fd0" xlink:href="#u"/><use fill="#016fd0" xlink:href="#v"/></g></svg>