<svg width="171" height="28" viewBox="0 0 171 28" xmlns="http://www.w3.org/2000/svg"><title>Logo</title><g fill="#FFF" fill-rule="evenodd"><path d="M13.655 14.959l-6.367-.038C3.26 14.92 0 11.62 0 7.595c0-1.957.767-3.798 2.148-5.179A7.283 7.283 0 0 1 7.326.268l14.806.039a5.222 5.222 0 0 1 5.216 5.216 5.222 5.222 0 0 1-5.216 5.217H7.326c-1.726 0-3.145-1.381-3.145-3.107 0-.844.307-1.65.92-2.225.576-.613 1.381-.92 2.225-.92h15.88v2.07H7.325A1.048 1.048 0 0 0 6.29 7.634c0 .575.46 1.035 1.036 1.035h14.806a3.16 3.16 0 0 0 3.145-3.145 3.16 3.16 0 0 0-3.145-3.145L7.326 2.34c-1.38 0-2.723.537-3.682 1.534A5.166 5.166 0 0 0 2.11 7.556a5.222 5.222 0 0 0 5.216 5.217l6.406.038-.002.077 6.33.038c4.028 0 7.288 3.299 7.288 7.326A7.283 7.283 0 0 1 25.2 25.43a7.387 7.387 0 0 1-5.14 2.11c-.038 0-.038 0 0 0L5.255 27.5a5.222 5.222 0 0 1-5.217-5.216 5.222 5.222 0 0 1 5.217-5.217H20.06c1.726 0 3.145 1.381 3.145 3.107 0 .844-.306 1.65-.92 2.225-.575.614-1.38.92-2.225.92H4.18v-2.07h15.88a1.048 1.048 0 0 0 1.036-1.075c0-.575-.46-1.035-1.036-1.035H5.255a3.16 3.16 0 0 0-3.145 3.145 3.16 3.16 0 0 0 3.145 3.145l14.805.038c1.381 0 2.724-.536 3.682-1.534a5.166 5.166 0 0 0 1.535-3.682 5.222 5.222 0 0 0-5.217-5.216l-6.405-.077z" fill-rule="nonzero"/><path d="M39.094 22.824c-3.246 0-5.602-1.563-6.491-4.135l2.38-1.395c.673 1.9 2.067 2.837 4.183 2.837 2.091 0 3.125-.89 3.125-2.212 0-.697-.288-1.202-.841-1.562-.553-.361-1.563-.77-2.981-1.202-1.611-.481-2.404-.794-3.534-1.54-1.082-.768-1.635-1.874-1.635-3.389 0-1.49.529-2.668 1.587-3.534 1.057-.89 2.332-1.322 3.822-1.322 2.693 0 4.784 1.394 5.866 3.702l-2.332 1.346c-.697-1.562-1.875-2.356-3.534-2.356-1.61 0-2.644.818-2.644 2.092 0 1.25.817 1.827 3.39 2.62.649.217 1.105.361 1.394.481.312.096.721.265 1.25.481.553.216.962.457 1.226.673.89.697 1.851 1.851 1.731 3.462 0 1.515-.553 2.74-1.659 3.63-1.082.89-2.524 1.323-4.303 1.323zm14.07-12.333v2.5h-2.981v5.77c0 1.538 1.01 1.514 2.98 1.418v2.332c-3.966.48-5.577-.601-5.577-3.75v-5.77h-2.212v-2.5h2.212V7.894l2.597-.77v3.367h2.98zm10.944 1.706v-1.706h2.597v12.02h-2.597v-1.73c-.985 1.37-2.38 2.043-4.207 2.043-1.659 0-3.053-.601-4.231-1.828-1.178-1.226-1.755-2.74-1.755-4.495 0-1.78.577-3.27 1.755-4.496 1.178-1.226 2.572-1.827 4.231-1.827 1.827 0 3.222.673 4.207 2.02zm-6.515 7.069c.722.72 1.635 1.081 2.717 1.081s1.995-.36 2.717-1.081c.72-.746 1.081-1.66 1.081-2.765 0-1.106-.36-2.02-1.081-2.74-.722-.746-1.635-1.107-2.717-1.107s-1.995.36-2.717 1.106c-.72.721-1.082 1.635-1.082 2.74 0 1.107.361 2.02 1.082 2.766zM71.88 10.49v2.019c.649-1.49 1.899-2.236 3.702-2.236v2.813c-.986-.072-1.851.168-2.596.721-.746.53-1.106 1.419-1.106 2.645v6.058h-2.597v-12.02h2.597zm12.194 0v2.5h-2.98v5.77c0 1.538 1.01 1.514 2.98 1.418v2.332c-3.966.48-5.577-.601-5.577-3.75v-5.77h-2.212v-2.5h2.212V7.894l2.596-.77v3.367h2.981zm12.099 3.293c1.467.77 2.356 2.164 2.356 3.919 0 1.37-.48 2.524-1.466 3.438-.986.913-2.164 1.37-3.583 1.37h-7.212V5.682h6.684c1.37 0 2.548.457 3.485 1.347.962.89 1.443 1.995 1.443 3.317 0 1.467-.577 2.597-1.707 3.438zM92.952 8.28h-3.92v4.423h3.92c1.226 0 2.163-.961 2.163-2.211s-.937-2.212-2.163-2.212zm-3.92 11.636h4.448c1.275 0 2.284-1.034 2.284-2.356 0-1.323-1.01-2.356-2.284-2.356h-4.447v4.712zm17.076 2.909c-1.755 0-3.27-.601-4.496-1.828-1.226-1.226-1.85-2.716-1.85-4.495 0-1.78.624-3.27 1.85-4.496 1.226-1.226 2.74-1.827 4.496-1.827 1.779 0 3.27.601 4.496 1.827 1.226 1.226 1.85 2.717 1.85 4.496 0 1.779-.624 3.27-1.85 4.495-1.226 1.227-2.717 1.828-4.496 1.828zm-2.669-3.607c.722.722 1.611 1.082 2.669 1.082s1.947-.36 2.668-1.082c.722-.72 1.082-1.634 1.082-2.716 0-1.082-.36-1.996-1.082-2.717-.72-.721-1.61-1.082-2.668-1.082s-1.947.361-2.669 1.082c-.72.721-1.081 1.635-1.081 2.717s.36 1.995 1.081 2.716zm16.595 3.607c-1.755 0-3.27-.601-4.496-1.828-1.226-1.226-1.851-2.716-1.851-4.495 0-1.78.625-3.27 1.851-4.496 1.226-1.226 2.74-1.827 4.496-1.827 1.779 0 3.27.601 4.495 1.827 1.226 1.226 1.851 2.717 1.851 4.496 0 1.779-.625 3.27-1.85 4.495-1.227 1.227-2.717 1.828-4.496 1.828zm-2.669-3.607c.721.722 1.61 1.082 2.669 1.082 1.057 0 1.947-.36 2.668-1.082.721-.72 1.082-1.634 1.082-2.716 0-1.082-.36-1.996-1.082-2.717-.721-.721-1.61-1.082-2.668-1.082s-1.948.361-2.669 1.082c-.721.721-1.082 1.635-1.082 2.717s.36 1.995 1.082 2.716zm16.065-2.836l5.482 6.13h-3.101l-4.929-5.553v5.553h-2.596V5.682h2.596v10.122l4.664-5.313h3.173l-5.289 5.89zm9.238-8.174c-.649.649-1.659.649-2.332 0-.649-.673-.649-1.683 0-2.332a1.627 1.627 0 0 1 2.356 0c.65.649.65 1.659-.024 2.332zm.144 14.304h-2.596v-12.02h2.596v12.02zm8.878-12.333c2.764 0 4.615 1.875 4.615 4.952v7.381h-2.596v-7.116c0-1.803-1.034-2.789-2.693-2.789-1.827 0-3.053 1.13-3.053 3.462v6.443h-2.596v-12.02h2.596v1.538c.794-1.226 2.02-1.85 3.727-1.85zm16.522 2.092v-1.78h2.548v11.468c0 1.827-.601 3.222-1.803 4.207-1.202.986-2.669 1.467-4.375 1.467-2.765 0-4.664-.962-5.698-2.91l2.236-1.297c.625 1.226 1.803 1.85 3.51 1.85 2.235 0 3.582-1.225 3.582-3.317v-1.466c-.986 1.394-2.38 2.091-4.183 2.091-1.707 0-3.126-.6-4.304-1.803-1.178-1.226-1.755-2.692-1.755-4.4 0-1.706.577-3.173 1.755-4.375 1.178-1.226 2.597-1.827 4.304-1.827 1.803 0 3.197.697 4.183 2.092zm-6.563 6.803c.745.721 1.658 1.082 2.74 1.082 1.082 0 1.996-.36 2.717-1.082.745-.721 1.106-1.61 1.106-2.692s-.36-1.972-1.106-2.693c-.721-.721-1.635-1.082-2.717-1.082s-1.995.36-2.74 1.082c-.722.721-1.082 1.61-1.082 2.693 0 1.081.36 1.971 1.082 2.692z"/></g></svg>