<svg xmlns="http://www.w3.org/2000/svg" xmlns:xlink="http://www.w3.org/1999/xlink" width="36" height="26" viewBox="0 0 36 26"><defs><path id="a" d="M671 443a4 4 0 0 1 4-4h26a4 4 0 0 1 4 4v16a4 4 0 0 1-4 4h-26a4 4 0 0 1-4-4z"/><path id="d" d="M685.06 456.56V445.5h6.83v11.06z"/><path id="e" d="M685.403 450.999c-.001-2.148.956-4.177 2.597-5.503-2.788-2.255-6.79-1.927-9.196.755-2.405 2.682-2.405 6.816 0 9.498 2.405 2.682 6.408 3.01 9.196.755-1.641-1.327-2.599-3.357-2.597-5.505z"/><path id="f" d="M699.36 455.68v-.464h.167v-.096h-.397v.096h.157v.464z"/><path id="g" d="M700.13 455.68v-.56h-.12l-.14.4-.14-.4h-.12v.56h.087v-.424l.13.364h.09l.13-.364v.424z"/><path id="h" d="M699 451.001c0 2.68-1.486 5.124-3.827 6.295a6.64 6.64 0 0 1-7.173-.793c1.64-1.327 2.598-3.356 2.598-5.503 0-2.147-.958-4.176-2.598-5.503a6.64 6.64 0 0 1 7.173-.793c2.34 1.17 3.827 3.615 3.827 6.295z"/><mask id="c" width="2" height="2" x="-1" y="-1"><path fill="#fff" d="M671 439h34v24h-34z"/><use xlink:href="#a"/></mask><filter id="b" width="56" height="47" x="660" y="428" filterUnits="userSpaceOnUse"><feOffset dy="1" in="SourceGraphic" result="FeOffset1343Out"/><feGaussianBlur in="FeOffset1343Out" result="FeGaussianBlur1344Out" stdDeviation="0.4 0.4"/></filter></defs><g transform="translate(-670 -439)"><g filter="url(#b)"><use fill="none" stroke-opacity=".1" stroke-width="0" mask="url(&quot;#c&quot;)" xlink:href="#a"/><use fill-opacity=".1" xlink:href="#a"/></g><use xlink:href="#a"/></g><use fill="#ff5f00" xlink:href="#d" transform="translate(-670 -439)"/><use fill="#eb001b" xlink:href="#e" transform="translate(-670 -439)"/><use fill="#f79e1b" xlink:href="#f" transform="translate(-670 -439)"/><use fill="#f79e1b" xlink:href="#g" transform="translate(-670 -439)"/><use fill="#f79e1b" xlink:href="#h" transform="translate(-670 -439)"/></svg>