<svg xmlns="http://www.w3.org/2000/svg" xmlns:xlink="http://www.w3.org/1999/xlink" width="36" height="27" viewBox="0 0 36 27"><defs><path id="a" d="M583 443a4 4 0 0 1 4-4h26a4 4 0 0 1 4 4v16a4 4 0 0 1-4 4h-26a4 4 0 0 1-4-4z"/><path id="f" d="M600.428 450.264a.313.313 0 0 0-.256.134l-1.481 2.143-.628-2.06a.31.31 0 0 0-.298-.217h-1.055a.187.187 0 0 0-.151.077.18.18 0 0 0-.025.165l1.182 3.41-1.111 1.543a.18.18 0 0 0-.014.19c.032.06.096.098.165.098h1.073a.311.311 0 0 0 .255-.13l3.57-5.066a.18.18 0 0 0 .013-.189.186.186 0 0 0-.165-.098zm-7.3 3.03c-.312 0-.56-.096-.72-.28-.159-.183-.219-.443-.168-.733a1.19 1.19 0 0 1 1.2-1.004c.305 0 .552.099.715.284.163.188.228.45.181.738-.103.596-.59.996-1.209.996zm1.626-3.03a.185.185 0 0 0-.184.154l-.047.293-.075-.106c-.231-.33-.747-.44-1.262-.44-1.18 0-2.189.878-2.385 2.108-.103.614.043 1.2.398 1.61.325.377.791.533 1.345.533.952 0 1.48-.6 1.48-.6l-.048.292a.18.18 0 0 0 .042.147c.035.04.087.064.141.064h.963a.308.308 0 0 0 .306-.257l.577-3.587a.18.18 0 0 0-.041-.147.187.187 0 0 0-.142-.064zm-6.664.81h-.336l.236-1.466a.185.185 0 0 1 .183-.154h.154c.402 0 .782 0 .978.226.116.134.152.334.108.61-.122.785-.733.785-1.323.785zm-1.159-2.834a.308.308 0 0 0-.306.257l-.903 5.611a.18.18 0 0 0 .043.147c.035.04.087.064.141.064h1.065a.308.308 0 0 0 .307-.257l.243-1.514a.308.308 0 0 1 .306-.256h.706c1.47 0 2.318-.698 2.54-2.08.1-.605.004-1.08-.285-1.413-.317-.366-.88-.559-1.626-.559z"/><path id="g" d="M612.052 454.109a.18.18 0 0 0 .042.147.19.19 0 0 0 .141.063h.92a.307.307 0 0 0 .306-.257l.902-5.611a.18.18 0 0 0-.042-.147.187.187 0 0 0-.141-.064h-1.03a.185.185 0 0 0-.183.154zm-3.035-.814c-.309 0-.557-.097-.716-.281-.158-.183-.217-.443-.168-.733a1.187 1.187 0 0 1 1.196-1.004c.303 0 .55.099.712.284.163.188.228.45.18.738-.102.596-.586.996-1.204.996zm1.633-3.03a.184.184 0 0 0-.183.154l-.048.293-.075-.107c-.231-.329-.747-.439-1.262-.439-1.182 0-2.19.877-2.387 2.108-.102.613.043 1.2.398 1.61.326.376.792.533 1.346.533.952 0 1.48-.6 1.48-.6l-.047.29a.18.18 0 0 0 .042.148.19.19 0 0 0 .142.064h.963a.31.31 0 0 0 .306-.257l.578-3.587a.18.18 0 0 0-.043-.147.188.188 0 0 0-.141-.063zm-6.67.82h-.334l.234-1.475a.184.184 0 0 1 .182-.155h.154c.4 0 .777 0 .972.226.116.136.152.337.107.614-.12.79-.728.79-1.315.79zm-1.16-2.845a.308.308 0 0 0-.306.257l-.902 5.612a.18.18 0 0 0 .042.147.19.19 0 0 0 .141.063h1.144a.216.216 0 0 0 .214-.18l.256-1.59a.308.308 0 0 1 .305-.257h.705c1.469 0 2.316-.698 2.537-2.08.1-.605.004-1.08-.284-1.413-.317-.365-.878-.559-1.624-.559z"/><mask id="c" width="2.06" height="2.08" x="-1.03" y="-1.04"><path fill="#fff" d="M582 438h36v26h-36z"/><use xlink:href="#a"/></mask><filter id="b" width="56" height="46" x="572" y="428" filterUnits="userSpaceOnUse"><feOffset in="SourceGraphic" result="FeOffset1202Out"/><feGaussianBlur in="FeOffset1202Out" result="FeGaussianBlur1203Out" stdDeviation="0 0"/></filter><mask id="e" width="2" height="2" x="-1" y="-1"><path fill="#fff" d="M583 439h34v24h-34z"/><use xlink:href="#a"/></mask><filter id="d" width="56" height="47" x="572" y="428" filterUnits="userSpaceOnUse"><feOffset dy="1" in="SourceGraphic" result="FeOffset1213Out"/><feGaussianBlur in="FeOffset1213Out" result="FeGaussianBlur1214Out" stdDeviation="0.4 0.4"/></filter></defs><g transform="translate(-582 -438)"><g filter="url(#b)"><use fill="none" stroke="#000" stroke-opacity=".1" stroke-width="2" mask="url(&quot;#c&quot;)" xlink:href="#a"/><use fill-opacity=".1" xlink:href="#a"/></g><g filter="url(#d)"><use fill="none" stroke-opacity=".1" stroke-width="0" mask="url(&quot;#e&quot;)" xlink:href="#a"/><use fill-opacity=".1" xlink:href="#a"/></g><use fill="#fff" xlink:href="#a"/></g><use fill="#253b80" xlink:href="#f" transform="translate(-582 -438)"/><use fill="#179bd7" xlink:href="#g" transform="translate(-582 -438)"/></svg>