<svg width="231" height="37" viewBox="0 0 231 37" fill="none" xmlns="http://www.w3.org/2000/svg"><path d="M28.467 36.395c-.05 0-.05 0 0 0l-19.754-.05c-3.846 0-6.964-3.088-6.964-6.896 0-3.809 3.118-6.896 6.964-6.896h19.754a4.19 4.19 0 0 1 3.84 1.985 4.103 4.103 0 0 1 0 4.288 4.19 4.19 0 0 1-3.84 1.985H7.27v-2.725h21.197a1.4 1.4 0 0 0 .997-.415c.263-.266.405-.626.396-.997 0-.365-.147-.714-.409-.97a1.383 1.383 0 0 0-.984-.393H8.713c-2.313.01-4.186 1.864-4.195 4.154.01 2.29 1.882 4.145 4.195 4.155l19.754.05c1.851.02 3.63-.71 4.926-2.018a6.846 6.846 0 0 0 1.511-7.517c-1.078-2.577-3.62-4.257-6.437-4.256l-8.543-.1-8.493-.051c-3.492-.01-6.714-1.862-8.453-4.862a9.596 9.596 0 0 1 .026-9.678C4.758 2.198 7.99.36 11.482.37l19.754.05c3.846 0 6.964 3.088 6.964 6.896s-3.118 6.895-6.964 6.895H11.482a4.19 4.19 0 0 1-3.84-1.984 4.102 4.102 0 0 1 0-4.289 4.19 4.19 0 0 1 3.84-1.984h21.18v2.724h-21.18a1.4 1.4 0 0 0-1.003.422c-.263.27-.404.633-.39 1.008 0 .756.612 1.362 1.393 1.362h19.754c2.313-.01 4.186-1.864 4.195-4.154-.009-2.29-1.882-4.145-4.195-4.154l-19.754-.05A6.828 6.828 0 0 0 6.556 5.13a6.846 6.846 0 0 0-1.51 7.516c1.078 2.577 3.618 4.257 6.436 4.256l8.544.034v.118l8.441.05c5.162.302 9.191 4.534 9.191 9.654s-4.03 9.352-9.19 9.653v-.017z" fill="url(#paint0_linear)"/><path fill-rule="evenodd" clip-rule="evenodd" d="M53.877 30.155c-4.33 0-7.473-2.052-8.662-5.466l3.176-1.85c.9 2.523 2.752 3.767 5.588 3.767 2.786 0 4.162-1.177 4.162-2.926 0-.925-.374-1.58-1.121-2.069-.73-.47-2.09-1.009-3.975-1.58a15.33 15.33 0 0 1-4.722-2.035 5.095 5.095 0 0 1-2.174-4.474c0-1.985.696-3.532 2.106-4.676a7.691 7.691 0 0 1 5.096-1.749c3.372-.1 6.471 1.827 7.847 4.878l-3.125 1.8c-.917-2.07-2.497-3.112-4.705-3.112-2.157 0-3.533 1.076-3.533 2.758 0 1.648 1.087 2.405 4.518 3.464l.597.196h.002c.557.181.976.317 1.27.444.407.117.968.336 1.664.622.747.286 1.29.605 1.63.891 1.19.925 2.48 2.456 2.31 4.575 0 2.018-.73 3.633-2.208 4.793a8.825 8.825 0 0 1-5.74 1.749zm18.786-16.297v3.313h-3.992v7.619c0 2.035 1.36 2.018 3.992 1.884v3.077c-5.3.64-7.456-.79-7.456-4.961v-7.619H62.25v-3.313h2.956v-3.43l3.465-1.01v4.44h3.991zm14.607 0v2.254h-.017c-1.307-1.766-3.176-2.657-5.605-2.657a7.543 7.543 0 0 0-5.656 2.405c-1.562 1.63-2.327 3.599-2.327 5.953a8.23 8.23 0 0 0 2.327 5.937c1.58 1.614 3.448 2.405 5.656 2.405a6.494 6.494 0 0 0 5.605-2.69v2.286h3.465V13.858H87.27zm-8.696 11.605a4.952 4.952 0 0 0 3.618 1.43 4.952 4.952 0 0 0 3.646-1.45 4.851 4.851 0 0 0 1.415-3.63 4.884 4.884 0 0 0-1.42-3.63 4.985 4.985 0 0 0-3.641-1.466 4.985 4.985 0 0 0-3.635 1.46 4.885 4.885 0 0 0-1.427 3.62 5.019 5.019 0 0 0 1.444 3.666zm19.058-8.93v-2.675h-3.466v15.893h3.466v-8.005c0-1.631.475-2.792 1.477-3.498a5.047 5.047 0 0 1 3.448-.959v-3.717c-2.378 0-4.06.993-4.925 2.96zm16.271-2.675v3.313h-3.974v7.619c0 2.035 1.359 2.018 3.974 1.884v3.077c-5.282.64-7.439-.79-7.439-4.961v-7.619h-2.956v-3.313h2.956v-3.43l3.465-1.01v4.44h3.974zm19.296 9.536c0-2.304-1.189-4.154-3.16-5.163l.034-.017c1.512-1.11 2.276-2.607 2.276-4.54a5.69 5.69 0 0 0-1.919-4.39c-1.257-1.178-2.836-1.766-4.654-1.766h-8.917V29.75h9.597a6.78 6.78 0 0 0 4.789-1.816c1.308-1.21 1.954-2.725 1.954-4.54zm-7.44-12.445h-5.231v5.836h5.231c1.631 0 2.888-1.262 2.888-2.927 0-1.648-1.257-2.91-2.888-2.91zm.713 15.371h-5.944l-.017-6.222h5.945c.825 0 1.616.33 2.192.916a3.01 3.01 0 0 1 .865 2.195c0 1.75-1.342 3.111-3.041 3.111zm16.833 3.835a8.231 8.231 0 0 1-5.996-2.405 8.034 8.034 0 0 1-2.463-5.937c0-2.354.833-4.322 2.463-5.953a8.232 8.232 0 0 1 5.996-2.405c2.378 0 4.365.79 6.013 2.405a8.038 8.038 0 0 1 2.463 5.953c0 2.355-.833 4.306-2.463 5.937a8.18 8.18 0 0 1-6.013 2.405zm0-3.33c-1.41 0-2.599-.47-3.567-1.43h.017c-.951-.958-1.461-2.152-1.461-3.599a4.854 4.854 0 0 1 1.423-3.566 4.954 4.954 0 0 1 3.588-1.445 4.952 4.952 0 0 1 3.594 1.45 4.851 4.851 0 0 1 1.417 3.578 4.85 4.85 0 0 1-1.424 3.567 4.95 4.95 0 0 1-3.587 1.445zm18.599 3.33a8.23 8.23 0 0 1-6.013-2.405 8.034 8.034 0 0 1-2.463-5.937c0-2.354.832-4.322 2.463-5.953a8.232 8.232 0 0 1 6.013-2.405c2.378 0 4.348.79 5.996 2.405a8.033 8.033 0 0 1 2.462 5.953c0 2.355-.832 4.306-2.462 5.937a8.179 8.179 0 0 1-5.996 2.405zm0-3.33c-1.427 0-2.599-.47-3.567-1.43-.968-.958-1.444-2.152-1.444-3.599a4.854 4.854 0 0 1 1.423-3.566 4.954 4.954 0 0 1 3.588-1.445 4.952 4.952 0 0 1 3.594 1.45 4.85 4.85 0 0 1 1.416 3.578 4.846 4.846 0 0 1-1.423 3.567 4.95 4.95 0 0 1-3.587 1.445zm17.868-5.18l7.304 8.106h-4.127l-6.574-7.35v7.35h-3.465V7.518h3.465v13.37l6.217-7.03h4.246l-7.066 7.787zm9.223-10.797c.901.84 2.242.84 3.109 0 .883-.892.883-2.237.034-3.078a2.187 2.187 0 0 0-3.143 0 2.158 2.158 0 0 0 0 3.078zm3.295 18.903h-3.464V13.858h3.464v15.893zm18.005-9.754c0-4.07-2.463-6.56-6.149-6.56v.018c-2.276 0-3.923.824-4.976 2.438v-2.035h-3.465v15.893h3.465v-8.51c0-3.094 1.63-4.574 4.076-4.574 2.225 0 3.584 1.295 3.584 3.666v9.418h3.465v-9.754zm15.898-3.784v-2.355h3.397v15.153c0 2.422-.798 4.255-2.395 5.55a8.975 8.975 0 0 1-5.843 1.951c-3.685 0-6.233-1.261-7.609-3.834l2.989-1.716c.833 1.615 2.395 2.439 4.688 2.439 2.973 0 4.773-1.615 4.773-4.373v-1.95a6.458 6.458 0 0 1-5.588 2.757 8.19 8.19 0 0 1-5.763-2.43 8.029 8.029 0 0 1-2.322-5.76c0-2.254.781-4.205 2.344-5.785a7.646 7.646 0 0 1 5.741-2.405c2.412 0 4.28.925 5.588 2.758zm-5.095 10.444c-1.461 0-2.667-.488-3.669-1.43-.951-.958-1.444-2.136-1.444-3.565a4.786 4.786 0 0 1 1.444-3.549c1.002-.959 2.225-1.43 3.669-1.43a4.95 4.95 0 0 1 3.617 1.43 4.682 4.682 0 0 1 1.478 3.549 4.684 4.684 0 0 1-1.478 3.565 4.95 4.95 0 0 1-3.617 1.43z" fill="#3F3F3F"/><defs><linearGradient id="paint0_linear" x1="21.594" y1="-15.639" x2="-10.378" y2="17.56" gradientUnits="userSpaceOnUse"><stop stop-color="#2099FF"/><stop offset="1" stop-color="#0561C7"/></linearGradient></defs></svg>