<svg width="69" height="69" viewBox="0 0 69 69" fill="none" xmlns="http://www.w3.org/2000/svg"><g filter="url(#filter0_d)"><path fill-rule="evenodd" clip-rule="evenodd" d="M30.555 63.599l-3.363 1.264a8.09 8.09 0 0 1-10.216-4.231l-1.484-3.273a10.584 10.584 0 0 0-5.267-5.267l-3.273-1.484a8.09 8.09 0 0 1-4.231-10.216l1.264-3.363a10.584 10.584 0 0 0 0-7.45l-1.264-3.363A8.09 8.09 0 0 1 6.952 16l3.273-1.484a10.584 10.584 0 0 0 5.267-5.267l1.484-3.273a8.09 8.09 0 0 1 10.216-4.231l3.363 1.264c2.401.903 5.049.903 7.45 0l3.363-1.264a8.09 8.09 0 0 1 10.216 4.231l1.484 3.273a10.584 10.584 0 0 0 5.268 5.267L61.608 16a8.09 8.09 0 0 1 4.231 10.216l-1.264 3.363a10.584 10.584 0 0 0 0 7.45l1.264 3.363a8.09 8.09 0 0 1-4.231 10.216l-3.272 1.484a10.584 10.584 0 0 0-5.268 5.267l-1.484 3.273a8.09 8.09 0 0 1-10.216 4.231L38.005 63.6a10.585 10.585 0 0 0-7.45 0z" fill="#1480E6"/></g><defs><filter id="filter0_d" x=".202" y=".225" width="68.157" height="68.157" filterUnits="userSpaceOnUse" color-interpolation-filters="sRGB"><feFlood flood-opacity="0" result="BackgroundImageFix"/><feColorMatrix in="SourceAlpha" values="0 0 0 0 0 0 0 0 0 0 0 0 0 0 0 0 0 0 127 0"/><feOffset dy="1"/><feGaussianBlur stdDeviation="1"/><feColorMatrix values="0 0 0 0 0 0 0 0 0 0 0 0 0 0 0 0 0 0 0.2 0"/><feBlend in2="BackgroundImageFix" result="effect1_dropShadow"/><feBlend in="SourceGraphic" in2="effect1_dropShadow" result="shape"/></filter></defs></svg>