<svg width="100" height="42" viewBox="0 0 100 42" fill="none" xmlns="http://www.w3.org/2000/svg">
<path fill-rule="evenodd" clip-rule="evenodd" d="M100 21.4999C100 14.3888 96.5555 8.77771 89.9722 8.77771C83.3611 8.77771 79.3611 14.3888 79.3611 21.4444C79.3611 29.8055 84.0833 34.0277 90.8611 34.0277C94.1666 34.0277 96.6666 33.2777 98.5555 32.2222V26.6666C96.6666 27.6111 94.5 28.1944 91.75 28.1944C89.0555 28.1944 86.6666 27.2499 86.3611 23.9722H99.9444C99.9444 23.6111 100 22.1666 100 21.4999ZM86.2778 18.8611C86.2778 15.7222 88.1944 14.4166 89.9444 14.4166C91.6389 14.4166 93.4444 15.7222 93.4444 18.8611H86.2778Z" fill="#6772E5"/>
<path fill-rule="evenodd" clip-rule="evenodd" d="M68.6388 8.77771C65.9166 8.77771 64.1666 10.0555 63.1944 10.9444L62.8333 9.22215H56.7222V41.6111L63.6666 40.1388L63.6944 32.2777C64.6944 32.9999 66.1666 34.0277 68.6111 34.0277C73.5833 34.0277 78.1111 30.0277 78.1111 21.2222C78.0833 13.1666 73.5 8.77771 68.6388 8.77771ZM66.9722 27.9166C65.3333 27.9166 64.3611 27.3333 63.6944 26.6111L63.6666 16.3055C64.3888 15.4999 65.3888 14.9444 66.9722 14.9444C69.5 14.9444 71.25 17.7777 71.25 21.4166C71.25 25.1388 69.5277 27.9166 66.9722 27.9166Z" fill="#6772E5"/>
<path fill-rule="evenodd" clip-rule="evenodd" d="M47.1667 7.13889L54.139 5.63889V0L47.1667 1.47222V7.13889Z" fill="#6772E5"/>
<path d="M54.139 9.25H47.1667V33.5556H54.139V9.25Z" fill="#6772E5"/>
<path fill-rule="evenodd" clip-rule="evenodd" d="M39.6944 11.3057L39.25 9.25014H33.25V33.5557H40.1944V17.0835C41.8333 14.9446 44.6111 15.3335 45.4722 15.639V9.25014C44.5833 8.91681 41.3333 8.30569 39.6944 11.3057Z" fill="#6772E5"/>
<path fill-rule="evenodd" clip-rule="evenodd" d="M25.8058 3.22229L19.028 4.66674L19.0002 26.9167C19.0002 31.0279 22.0836 34.0556 26.1947 34.0556C28.4725 34.0556 30.1391 33.639 31.0558 33.139V27.5001C30.1669 27.8612 25.778 29.139 25.778 25.0279V15.1667H31.0558V9.25007H25.778L25.8058 3.22229Z" fill="#6772E5"/>
<path fill-rule="evenodd" clip-rule="evenodd" d="M7.02778 16.3055C7.02778 15.2222 7.91667 14.8055 9.3889 14.8055C11.5 14.8055 14.1667 15.4444 16.2778 16.5833V10.0555C13.9722 9.13882 11.6945 8.77771 9.3889 8.77771C3.75 8.77771 0 11.7222 0 16.6388C0 24.3055 10.5556 23.0833 10.5556 26.3888C10.5556 27.6666 9.44445 28.0833 7.88889 28.0833C5.58334 28.0833 2.63889 27.1388 0.305555 25.8611V32.4722C2.88889 33.5833 5.5 34.0555 7.88889 34.0555C13.6667 34.0555 17.6389 31.1944 17.6389 26.2222C17.6111 17.9444 7.02778 19.4166 7.02778 16.3055Z" fill="#6772E5"/>
</svg>
