<svg xmlns="http://www.w3.org/2000/svg" width="32" height="32" viewBox="0 0 32 32"><defs><mask id="b" width="2" height="2" x="-1" y="-1"><path fill="#fff" d="M1 0h30v30H1z"/><path d="M12.031 13.3a1.154 1.154 0 0 1-.428-1.001 5.125 5.125 0 0 1 .749-2.19c.675-1.1 1.716-1.822 3.092-1.991l.11-1.265a1.154 1.154 0 1 1 2.3.201l-.11 1.245c2.181.586 3.276 2.279 3.055 4.804a1.154 1.154 0 0 1-2.299-.2c.146-1.665-.434-2.355-2.098-2.5-1.057-.093-1.672.244-2.084.914a3.07 3.07 0 0 0-.29.625l5.94 4.758c.302.241.462.617.429 1.001-.221 2.526-1.593 4.003-3.843 4.2l-.108 1.246a1.154 1.154 0 0 1-2.3-.201l.11-1.245c-2.181-.586-3.276-2.279-3.055-4.804a1.154 1.154 0 0 1 2.299.2c-.146 1.665.434 2.355 2.098 2.5 1.45.128 2.16-.295 2.415-1.506zM16 30c8.284 0 15-6.716 15-15 0-8.284-6.716-15-15-15C7.716 0 1 6.716 1 15c0 8.284 6.716 15 15 15z"/></mask><filter id="a" width="52" height="53" x="-10" y="-11" filterUnits="userSpaceOnUse"><feOffset dy="1" in="SourceGraphic" result="FeOffset1023Out"/><feGaussianBlur in="FeOffset1023Out" result="FeGaussianBlur1024Out" stdDeviation="0.4 0.4"/></filter><linearGradient id="c" x1="16" x2="16" y1="0" y2="30" gradientUnits="userSpaceOnUse"><stop offset="0" stop-color="#115a9f"/><stop offset="1" stop-color="#1171ca"/></linearGradient><filter id="d" width="200%" height="200%" x="-50%" y="-50%"><feGaussianBlur in="SourceGraphic" result="FeGaussianBlur1032Out" stdDeviation="0.5 0.5"/></filter><mask id="e"><path fill="#fff" d="M12.031 13.3a1.154 1.154 0 0 1-.428-1.001 5.125 5.125 0 0 1 .749-2.19c.675-1.1 1.716-1.822 3.092-1.991l.11-1.265a1.154 1.154 0 1 1 2.3.201l-.11 1.245c2.181.586 3.276 2.279 3.055 4.804a1.154 1.154 0 0 1-2.299-.2c.146-1.665-.434-2.355-2.098-2.5-1.057-.093-1.672.244-2.084.914a3.07 3.07 0 0 0-.29.625l5.94 4.758c.302.241.462.617.429 1.001-.221 2.526-1.593 4.003-3.843 4.2l-.108 1.246a1.154 1.154 0 0 1-2.3-.201l.11-1.245c-2.181-.586-3.276-2.279-3.055-4.804a1.154 1.154 0 0 1 2.299.2c-.146 1.665.434 2.355 2.098 2.5 1.45.128 2.16-.295 2.415-1.506zM16 30c8.284 0 15-6.716 15-15 0-8.284-6.716-15-15-15C7.716 0 1 6.716 1 15c0 8.284 6.716 15 15 15z"/></mask><filter id="f" width="200%" height="200%" x="-50%" y="-50%"><feGaussianBlur in="SourceGraphic" result="FeGaussianBlur1037Out" stdDeviation="0.5 0.5"/></filter><mask id="g"><path fill="#fff" d="M12.031 13.3a1.154 1.154 0 0 1-.428-1.001 5.125 5.125 0 0 1 .749-2.19c.675-1.1 1.716-1.822 3.092-1.991l.11-1.265a1.154 1.154 0 1 1 2.3.201l-.11 1.245c2.181.586 3.276 2.279 3.055 4.804a1.154 1.154 0 0 1-2.299-.2c.146-1.665-.434-2.355-2.098-2.5-1.057-.093-1.672.244-2.084.914a3.07 3.07 0 0 0-.29.625l5.94 4.758c.302.241.462.617.429 1.001-.221 2.526-1.593 4.003-3.843 4.2l-.108 1.246a1.154 1.154 0 0 1-2.3-.201l.11-1.245c-2.181-.586-3.276-2.279-3.055-4.804a1.154 1.154 0 0 1 2.299.2c-.146 1.665.434 2.355 2.098 2.5 1.45.128 2.16-.295 2.415-1.506zM16 30c8.284 0 15-6.716 15-15 0-8.284-6.716-15-15-15C7.716 0 1 6.716 1 15c0 8.284 6.716 15 15 15z"/></mask></defs><g filter="url(#a)"><path fill="none" d="M12.031 13.3a1.154 1.154 0 0 1-.428-1.001 5.125 5.125 0 0 1 .749-2.19c.675-1.1 1.716-1.822 3.092-1.991l.11-1.265a1.154 1.154 0 1 1 2.3.201l-.11 1.245c2.181.586 3.276 2.279 3.055 4.804a1.154 1.154 0 0 1-2.299-.2c.146-1.665-.434-2.355-2.098-2.5-1.057-.093-1.672.244-2.084.914a3.07 3.07 0 0 0-.29.625l5.94 4.758c.302.241.462.617.429 1.001-.221 2.526-1.593 4.003-3.843 4.2l-.108 1.246a1.154 1.154 0 0 1-2.3-.201l.11-1.245c-2.181-.586-3.276-2.279-3.055-4.804a1.154 1.154 0 0 1 2.299.2c-.146 1.665.434 2.355 2.098 2.5 1.45.128 2.16-.295 2.415-1.506zM16 30c8.284 0 15-6.716 15-15 0-8.284-6.716-15-15-15C7.716 0 1 6.716 1 15c0 8.284 6.716 15 15 15z" mask="url(&quot;#b&quot;)"/><path fill="#fff" fill-opacity=".1" d="M12.031 13.3a1.154 1.154 0 0 1-.428-1.001 5.125 5.125 0 0 1 .749-2.19c.675-1.1 1.716-1.822 3.092-1.991l.11-1.265a1.154 1.154 0 1 1 2.3.201l-.11 1.245c2.181.586 3.276 2.279 3.055 4.804a1.154 1.154 0 0 1-2.299-.2c.146-1.665-.434-2.355-2.098-2.5-1.057-.093-1.672.244-2.084.914a3.07 3.07 0 0 0-.29.625l5.94 4.758c.302.241.462.617.429 1.001-.221 2.526-1.593 4.003-3.843 4.2l-.108 1.246a1.154 1.154 0 0 1-2.3-.201l.11-1.245c-2.181-.586-3.276-2.279-3.055-4.804a1.154 1.154 0 0 1 2.299.2c-.146 1.665.434 2.355 2.098 2.5 1.45.128 2.16-.295 2.415-1.506zM16 30c8.284 0 15-6.716 15-15 0-8.284-6.716-15-15-15C7.716 0 1 6.716 1 15c0 8.284 6.716 15 15 15z"/></g><path fill="url(#c)" d="M12.031 13.3a1.154 1.154 0 0 1-.428-1.001 5.125 5.125 0 0 1 .749-2.19c.675-1.1 1.716-1.822 3.092-1.991l.11-1.265a1.154 1.154 0 1 1 2.3.201l-.11 1.245c2.181.586 3.276 2.279 3.055 4.804a1.154 1.154 0 0 1-2.299-.2c.146-1.665-.434-2.355-2.098-2.5-1.057-.093-1.672.244-2.084.914a3.07 3.07 0 0 0-.29.625l5.94 4.758c.302.241.462.617.429 1.001-.221 2.526-1.593 4.003-3.843 4.2l-.108 1.246a1.154 1.154 0 0 1-2.3-.201l.11-1.245c-2.181-.586-3.276-2.279-3.055-4.804a1.154 1.154 0 0 1 2.299.2c-.146 1.665.434 2.355 2.098 2.5 1.45.128 2.16-.295 2.415-1.506zM16 30c8.284 0 15-6.716 15-15 0-8.284-6.716-15-15-15C7.716 0 1 6.716 1 15c0 8.284 6.716 15 15 15z"/><path fill-opacity=".1" d="M0 31V-1h32v32zm12.031-17.7a1.154 1.154 0 0 1-.428-1.001 5.125 5.125 0 0 1 .749-2.19c.675-1.1 1.716-1.822 3.092-1.991l.11-1.265a1.154 1.154 0 1 1 2.3.201l-.11 1.245c2.181.586 3.276 2.279 3.055 4.804a1.154 1.154 0 0 1-2.299-.2c.146-1.665-.434-2.355-2.098-2.5-1.057-.093-1.672.244-2.084.914a3.07 3.07 0 0 0-.29.625l5.94 4.758c.302.241.462.617.429 1.001-.221 2.526-1.593 4.003-3.843 4.2l-.108 1.246a1.154 1.154 0 0 1-2.3-.201l.11-1.245c-2.181-.586-3.276-2.279-3.055-4.804a1.154 1.154 0 0 1 2.299.2c-.146 1.665.434 2.355 2.098 2.5 1.45.128 2.16-.295 2.415-1.506zM16 30c8.284 0 15-6.716 15-15 0-8.284-6.716-15-15-15C7.716 0 1 6.716 1 15c0 8.284 6.716 15 15 15z" filter="url(#d)" mask="url(&quot;#e&quot;)"/><path fill-opacity=".05" d="M0 32V-2h32v34zm12.031-17.7a1.154 1.154 0 0 1-.428-1.001 5.125 5.125 0 0 1 .749-2.19c.675-1.1 1.716-1.822 3.092-1.991l.11-1.265a1.154 1.154 0 1 1 2.3.201l-.11 1.245c2.181.586 3.276 2.279 3.055 4.804a1.154 1.154 0 0 1-2.299-.2c.146-1.665-.434-2.355-2.098-2.5-1.057-.093-1.672.244-2.084.914a3.07 3.07 0 0 0-.29.625l5.94 4.758c.302.241.462.617.429 1.001-.221 2.526-1.593 4.003-3.843 4.2l-.108 1.246a1.154 1.154 0 0 1-2.3-.201l.11-1.245c-2.181-.586-3.276-2.279-3.055-4.804a1.154 1.154 0 0 1 2.299.2c-.146 1.665.434 2.355 2.098 2.5 1.45.128 2.16-.295 2.415-1.506zM16 31c8.284 0 15-6.716 15-15 0-8.284-6.716-15-15-15C7.716 1 1 7.716 1 16c0 8.284 6.716 15 15 15z" filter="url(#f)" mask="url(&quot;#g&quot;)"/></svg>