<svg xmlns="http://www.w3.org/2000/svg" xmlns:xlink="http://www.w3.org/1999/xlink" width="36" height="27" viewBox="0 0 36 27"><defs><path id="a" d="M495 443a4 4 0 0 1 4-4h26a4 4 0 0 1 4 4v16a4 4 0 0 1-4 4h-26a4 4 0 0 1-4-4z"/><path id="f" d="M509.811 455.358H507.8l1.258-7.618h2.011z"/><path id="g" d="M517.103 447.924a5.048 5.048 0 0 0-1.804-.324c-1.986 0-3.385 1.037-3.393 2.52-.017 1.095 1.001 1.702 1.762 2.067.779.373 1.043.616 1.043.949-.008.51-.629.745-1.208.745-.803 0-1.233-.121-1.887-.405l-.265-.122-.281 1.71c.472.211 1.34.398 2.243.406 2.11 0 3.484-1.021 3.5-2.602.008-.867-.529-1.532-1.688-2.075-.703-.348-1.134-.583-1.134-.94.008-.324.364-.656 1.158-.656a3.478 3.478 0 0 1 1.499.292l.181.08.274-1.645z"/><path id="h" d="M522.254 447.74H520.7c-.48 0-.845.138-1.052.632l-2.987 6.986h2.11l.422-1.143h2.583l.24 1.143h1.862l-1.623-7.618zm-2.482 4.923l.803-2.136c-.009.016.165-.447.264-.731l.14.658s.382 1.827.464 2.209h-1.671z"/><path id="i" d="M506.115 447.74l-1.97 5.195-.214-1.054c-.365-1.215-1.507-2.536-2.781-3.193l1.804 6.662h2.127l3.161-7.61h-2.127z"/><path id="j" d="M502.319 447.74h-3.236l-.033.154c2.524.632 4.196 2.156 4.883 3.988l-.704-3.502c-.116-.486-.471-.624-.91-.64z"/><mask id="c" width="2.06" height="2.08" x="-1.03" y="-1.04"><path fill="#fff" d="M494 438h36v26h-36z"/><use xlink:href="#a"/></mask><filter id="b" width="56" height="46" x="484" y="428" filterUnits="userSpaceOnUse"><feOffset in="SourceGraphic" result="FeOffset1025Out"/><feGaussianBlur in="FeOffset1025Out" result="FeGaussianBlur1026Out" stdDeviation="0 0"/></filter><mask id="e" width="2" height="2" x="-1" y="-1"><path fill="#fff" d="M495 439h34v24h-34z"/><use xlink:href="#a"/></mask><filter id="d" width="56" height="47" x="484" y="428" filterUnits="userSpaceOnUse"><feOffset dy="1" in="SourceGraphic" result="FeOffset1036Out"/><feGaussianBlur in="FeOffset1036Out" result="FeGaussianBlur1037Out" stdDeviation="0.4 0.4"/></filter></defs><g transform="translate(-494 -438)"><g filter="url(#b)"><use fill="none" stroke="#000" stroke-opacity=".1" stroke-width="2" mask="url(&quot;#c&quot;)" xlink:href="#a"/><use fill-opacity=".1" xlink:href="#a"/></g><g filter="url(#d)"><use fill="none" stroke-opacity=".1" stroke-width="0" mask="url(&quot;#e&quot;)" xlink:href="#a"/><use fill-opacity=".1" xlink:href="#a"/></g><use fill="#fff" xlink:href="#a"/></g><use fill="#00579f" xlink:href="#f" transform="translate(-494 -438)"/><use fill="#00579f" xlink:href="#g" transform="translate(-494 -438)"/><use fill="#00579f" xlink:href="#h" transform="translate(-494 -438)"/><use fill="#00579f" xlink:href="#i" transform="translate(-494 -438)"/><use fill="#faa61a" xlink:href="#j" transform="translate(-494 -438)"/></svg>