<?xml version="1.0" encoding="UTF-8"?>
<svg width="14px" height="16px" viewBox="0 0 14 16" version="1.1" xmlns="http://www.w3.org/2000/svg" xmlns:xlink="http://www.w3.org/1999/xlink">
    <!-- Generator: Sketch 55.2 (78181) - https://sketchapp.com -->
    <title>locatio</title>
    <desc>Created with Sketch.</desc>
    <g id="Dashboard" stroke="none" stroke-width="1" fill="none" fill-rule="evenodd">
        <g id="Service-List---Grid-w/-images" transform="translate(-300.000000, -1004.000000)" fill="#969EA4">
            <g id="Group-4" transform="translate(300.000000, 761.000000)">
                <g id="Location" transform="translate(0.000000, 242.000000)">
                    <path d="M7,17 C6,17 1.77635684e-15,13 1.77635684e-15,8 C1.77635684e-15,3 3,1 7,1 C11,1 14,3 14,8 C14,13 8,17 7,17 Z M7,10 C8.1045695,10 9,9.1045695 9,8 C9,6.8954305 8.1045695,6 7,6 C5.8954305,6 5,6.8954305 5,8 C5,9.1045695 5.8954305,10 7,10 Z" id="locatio"></path>
                </g>
            </g>
        </g>
    </g>
</svg>