<?xml version="1.0" encoding="UTF-8"?>
<svg width="16px" height="16px" viewBox="0 0 16 16" version="1.1" xmlns="http://www.w3.org/2000/svg" xmlns:xlink="http://www.w3.org/1999/xlink">
    <!-- Generator: Sketch 55.2 (78181) - https://sketchapp.com -->
    <title>time</title>
    <desc>Created with Sketch.</desc>
    <g id="Dashboard" stroke="none" stroke-width="1" fill="none" fill-rule="evenodd">
        <g id="Service-List---Grid-w/-images" transform="translate(-300.000000, -762.000000)" fill="#969EA4">
            <g id="Group-4" transform="translate(300.000000, 761.000000)">
                <g id="Hours">
                    <path d="M8,17 C3.581722,17 0,13.418278 0,9 C0,4.581722 3.581722,1 8,1 C12.418278,1 16,4.581722 16,9 C16,13.418278 12.418278,17 8,17 Z M9,8 L9,4 C9,3.44771525 8.55228475,3 8,3 C7.44771525,3 7,3.44771525 7,4 L7,9 C7,9.55228475 7.44771525,10 8,10 L12,10 C12.5522847,10 13,9.55228475 13,9 C13,8.44771525 12.5522847,8 12,8 L9,8 Z" id="time"></path>
                </g>
            </g>
        </g>
    </g>
</svg>